<svg width="657.9px" height="122px" xmlns="http://www.w3.org/2000/svg" viewBox="-78.94687499999998 14 657.89375 122" style="background: rgba(0, 0, 0, 0)" preserveAspectRatio="xMidYMid"><defs><linearGradient id="editing-gradient-gradient" x1="0" x2="1" y1="0.5" y2="0.5" gradientUnits="objectBoundingBox"><stop offset="0" stop-color="#94b8f0"></stop><stop offset="1" stop-color="#e423df"></stop></linearGradient></defs><g><g transform="matrix(1.2,0,0,1.5,-24.4,180.8)"><path d="M -18.1 -54.9 L -32.1 -54.9 L -23.9 -97.1 L -9.8 -97.1 L -18.1 -54.9 Z M 37.6 -53.6 L 37.6 -53.6 L 37.6 -53.6 Q 29.9 -53.6 29.9 -59.6 L 29.9 -59.6 L 29.9 -59.6 Q 29.9 -62.3 31 -67.3 L 31 -67.3 L 31 -67.3 Q 32.1 -72.4 32.5 -74.5 L 32.5 -74.5 L 32.5 -74.5 Q 33.4 -79.2 33.4 -80.6 L 33.4 -80.6 L 33.4 -80.6 Q 33.4 -83.9 31 -83.9 L 31 -83.9 L 31 -83.9 Q 29.4 -83.9 27.9 -81.7 L 27.9 -81.7 L 27.9 -81.7 Q 26.3 -79.5 25.6 -75.1 L 25.6 -75.1 L 21.6 -54.9 L 9.2 -53.6 L 12.6 -71 L 12.6 -71 Q 13.2 -73.9 13.7 -77.2 L 13.7 -77.2 L 13.7 -77.2 Q 14.2 -80.4 14.2 -80.9 L 14.2 -80.9 L 14.2 -80.9 Q 14.2 -83.9 12 -83.9 L 12 -83.9 L 12 -83.9 Q 10.6 -83.9 9 -81.7 L 9 -81.7 L 9 -81.7 Q 7.4 -79.5 6.5 -75.1 L 6.5 -75.1 L 2.6 -54.9 L -10 -53.6 L -3.3 -87.5 L 7.1 -88.8 L 6 -82.4 L 6 -82.4 Q 7.7 -85.8 10.8 -87.3 L 10.8 -87.3 L 10.8 -87.3 Q 13.8 -88.8 18.6 -88.8 L 18.6 -88.8 L 18.6 -88.8 Q 21.4 -88.8 23.2 -87.5 L 23.2 -87.5 L 23.2 -87.5 Q 25 -86.1 25.5 -84 L 25.5 -84 L 25.5 -84 Q 26.6 -86.2 29.4 -87.5 L 29.4 -87.5 L 29.4 -87.5 Q 32.2 -88.8 35.6 -88.8 L 35.6 -88.8 L 35.6 -88.8 Q 39.1 -88.8 40.7 -88.1 L 40.7 -88.1 L 40.7 -88.1 Q 42.4 -87.3 43.5 -86.1 L 43.5 -86.1 L 43.5 -86.1 Q 45.2 -83.9 45.2 -79.8 L 45.2 -79.8 L 45.2 -79.8 Q 45.2 -75.8 43.5 -67.4 L 43.5 -67.4 L 43.5 -67.4 Q 42.6 -63.3 42.6 -61.8 L 42.6 -61.8 L 42.6 -61.8 Q 42.6 -60.3 43.4 -59.4 L 43.4 -59.4 L 43.4 -59.4 Q 44.3 -58.5 45.6 -58.4 L 45.6 -58.4 L 45.6 -58.4 Q 44.9 -56.2 42.7 -54.9 L 42.7 -54.9 L 42.7 -54.9 Q 40.5 -53.6 37.6 -53.6 Z M 53.3 -56.8 L 53.3 -56.8 L 53.3 -56.8 Q 51.8 -58.5 51.1 -61.1 L 51.1 -61.1 L 51.1 -61.1 Q 50.4 -63.7 50.4 -68 L 50.4 -68 L 50.4 -68 Q 50.4 -72.3 51.9 -76.2 L 51.9 -76.2 L 51.9 -76.2 Q 53.4 -80.1 56.1 -82.9 L 56.1 -82.9 L 56.1 -82.9 Q 61.6 -88.8 70.7 -88.8 L 70.7 -88.8 L 70.7 -88.8 Q 73.9 -88.8 76.3 -87.7 L 76.3 -87.7 L 87.2 -88.8 L 82.5 -63.9 L 82.5 -63.9 Q 82.3 -63.1 82.3 -61.7 L 82.3 -61.7 L 82.3 -61.7 Q 82.3 -60.3 83.2 -59.4 L 83.2 -59.4 L 83.2 -59.4 Q 84 -58.5 85.3 -58.4 L 85.3 -58.4 L 85.3 -58.4 Q 84.7 -56.2 82.3 -54.9 L 82.3 -54.9 L 82.3 -54.9 Q 80 -53.6 77.4 -53.6 L 77.4 -53.6 L 77.4 -53.6 Q 74.8 -53.6 73 -54.6 L 73 -54.6 L 73 -54.6 Q 71.2 -55.6 70.7 -57.3 L 70.7 -57.3 L 70.7 -57.3 Q 69.7 -55.7 67.5 -54.6 L 67.5 -54.6 L 67.5 -54.6 Q 65.4 -53.6 62.4 -53.6 L 62.4 -53.6 L 62.4 -53.6 Q 59.5 -53.6 57.2 -54.4 L 57.2 -54.4 L 57.2 -54.4 Q 54.8 -55.2 53.3 -56.8 Z M 66.8 -82.8 L 66.8 -82.8 L 66.8 -82.8 Q 66.1 -81.6 65.4 -79.7 L 65.4 -79.7 L 65.4 -79.7 Q 64.8 -77.7 63.7 -72.5 L 63.7 -72.5 L 63.7 -72.5 Q 62.7 -67.3 62.7 -63.6 L 62.7 -63.6 L 62.7 -63.6 Q 62.7 -59.9 63.2 -58.8 L 63.2 -58.8 L 63.2 -58.8 Q 63.8 -57.7 64.8 -57.7 L 64.8 -57.7 L 64.8 -57.7 Q 66.9 -57.7 68.4 -59.7 L 68.4 -59.7 L 68.4 -59.7 Q 69.9 -61.6 70.5 -65.1 L 70.5 -65.1 L 73.9 -83.8 L 73.9 -83.8 Q 72.5 -85 71 -85 L 71 -85 L 71 -85 Q 69.4 -85 68.5 -84.5 L 68.5 -84.5 L 68.5 -84.5 Q 67.5 -84 66.8 -82.8 Z M 95 -81.6 L 95 -81.6 L 95 -81.6 Q 97.2 -84.7 100.5 -86.8 L 100.5 -86.8 L 100.5 -86.8 Q 103.8 -88.8 107.8 -88.8 L 107.8 -88.8 L 107.8 -88.8 Q 111.8 -88.8 113.7 -87.5 L 113.7 -87.5 L 126.3 -88.8 L 121.9 -64.2 L 121.9 -64.2 Q 119.7 -51.7 115 -46.8 L 115 -46.8 L 115 -46.8 Q 110.4 -42.1 101.6 -42.1 L 101.6 -42.1 L 101.6 -42.1 Q 94.9 -42.1 91 -44.2 L 91 -44.2 L 91 -44.2 Q 87.2 -46.3 87.2 -49.8 L 87.2 -49.8 L 87.2 -49.8 Q 87.2 -52.5 89.2 -54 L 89.2 -54 L 89.2 -54 Q 91.1 -55.5 94.2 -55.5 L 94.2 -55.5 L 94.2 -55.5 Q 96.9 -55.5 99 -54.3 L 99 -54.3 L 99 -54.3 Q 100.2 -53.6 100.7 -52.7 L 100.7 -52.7 L 100.7 -52.7 Q 99.3 -51.4 99.3 -49.3 L 99.3 -49.3 L 99.3 -49.3 Q 99.3 -46.6 101.8 -46.6 L 101.8 -46.6 L 101.8 -46.6 Q 106.1 -46.6 108.6 -56.7 L 108.6 -56.7 L 108.6 -56.7 Q 109.3 -59.4 109.8 -62.2 L 109.8 -62.2 L 109.8 -62.2 Q 107 -58.7 100.4 -58.7 L 100.4 -58.7 L 100.4 -58.7 Q 95.9 -58.7 93.3 -60.8 L 93.3 -60.8 L 93.3 -60.8 Q 90.6 -63 90.6 -68.1 L 90.6 -68.1 L 90.6 -68.1 Q 90.6 -71.3 91.7 -75 L 91.7 -75 L 91.7 -75 Q 92.8 -78.6 95 -81.6 Z M 103.3 -68 L 103.3 -68 L 103.3 -68 Q 103.3 -63.6 105.5 -63.6 L 105.5 -63.6 L 105.5 -63.6 Q 107.1 -63.6 108.6 -65.3 L 108.6 -65.3 L 108.6 -65.3 Q 109.7 -66.6 110.2 -68.6 L 110.2 -68.6 L 113.4 -85 L 113.4 -85 Q 113.1 -85.1 112.8 -85.2 L 112.8 -85.2 L 112.8 -85.2 Q 112.1 -85.5 111.3 -85.5 L 111.3 -85.5 L 111.3 -85.5 Q 107.4 -85.5 105.1 -79.1 L 105.1 -79.1 L 105.1 -79.1 Q 103.3 -74.1 103.3 -68 Z M 154.7 -65.7 L 154.7 -65.7 L 154.7 -65.7 Q 156.3 -64.6 156.3 -62.2 L 156.3 -62.2 L 156.3 -62.2 Q 156.3 -59.8 155.1 -58.3 L 155.1 -58.3 L 155.1 -58.3 Q 153.9 -56.8 151.9 -55.7 L 151.9 -55.7 L 151.9 -55.7 Q 147.8 -53.6 143.4 -53.6 L 143.4 -53.6 L 143.4 -53.6 Q 139 -53.6 136.4 -54.6 L 136.4 -54.6 L 136.4 -54.6 Q 133.8 -55.5 132 -57.3 L 132 -57.3 L 132 -57.3 Q 128.7 -60.7 128.7 -66.9 L 128.7 -66.9 L 128.7 -66.9 Q 128.7 -76.6 133.9 -82.5 L 133.9 -82.5 L 133.9 -82.5 Q 139.5 -88.8 149.3 -88.8 L 149.3 -88.8 L 149.3 -88.8 Q 155.4 -88.8 158.4 -86.3 L 158.4 -86.3 L 158.4 -86.3 Q 160.7 -84.3 160.7 -81.2 L 160.7 -81.2 L 160.7 -81.2 Q 160.7 -69.9 141.2 -69.9 L 141.2 -69.9 L 141.2 -69.9 Q 140.9 -68.3 140.9 -66.9 L 140.9 -66.9 L 140.9 -66.9 Q 140.9 -63.9 142.3 -62.8 L 142.3 -62.8 L 142.3 -62.8 Q 143.6 -61.7 146 -61.7 L 146 -61.7 L 146 -61.7 Q 148.4 -61.7 151 -62.8 L 151 -62.8 L 151 -62.8 Q 153.6 -63.9 154.7 -65.7 Z M 141.6 -72.7 L 141.6 -72.7 L 141.6 -72.7 Q 146.2 -72.7 148.8 -75.5 L 148.8 -75.5 L 148.8 -75.5 Q 151.4 -78.2 151.4 -82.5 L 151.4 -82.5 L 151.4 -82.5 Q 151.4 -84 150.9 -84.8 L 150.9 -84.8 L 150.9 -84.8 Q 150.3 -85.6 149.3 -85.6 L 149.3 -85.6 L 149.3 -85.6 Q 148.2 -85.6 147.2 -85.1 L 147.2 -85.1 L 147.2 -85.1 Q 146.3 -84.7 145.4 -83.3 L 145.4 -83.3 L 145.4 -83.3 Q 143 -80.1 141.6 -72.7 Z M 182 -77.4 L 182 -77.4 L 182 -77.4 Q 182.9 -79.7 182.9 -81.8 L 182.9 -81.8 L 182.9 -81.8 Q 182.9 -85.6 179.8 -85.6 L 179.8 -85.6 L 179.8 -85.6 Q 178.2 -85.6 176.9 -84.1 L 176.9 -84.1 L 176.9 -84.1 Q 175.6 -82.7 175.6 -80.9 L 175.6 -80.9 L 175.6 -80.9 Q 175.6 -79.6 176.6 -78.6 L 176.6 -78.6 L 176.6 -78.6 Q 178.1 -77.2 181.8 -74.9 L 181.8 -74.9 L 181.8 -74.9 Q 185.6 -72.6 187.1 -70.7 L 187.1 -70.7 L 187.1 -70.7 Q 188.5 -68.8 188.5 -66.2 L 188.5 -66.2 L 188.5 -66.2 Q 188.5 -63.6 187.2 -61.2 L 187.2 -61.2 L 187.2 -61.2 Q 186 -58.9 183.8 -57.2 L 183.8 -57.2 L 183.8 -57.2 Q 179 -53.6 171.3 -53.6 L 171.3 -53.6 L 171.3 -53.6 Q 167.1 -53.6 163.9 -55.8 L 163.9 -55.8 L 163.9 -55.8 Q 160.7 -57.9 160.7 -60.4 L 160.7 -60.4 L 160.7 -60.4 Q 160.7 -62.9 162.5 -64.4 L 162.5 -64.4 L 162.5 -64.4 Q 164.4 -65.8 167.1 -65.8 L 167.1 -65.8 L 167.1 -65.8 Q 169.7 -65.8 171.4 -64.8 L 171.4 -64.8 L 171.4 -64.8 Q 170.6 -62.7 170.6 -61.3 L 170.6 -61.3 L 170.6 -61.3 Q 170.6 -57.1 174.2 -57.1 L 174.2 -57.1 L 174.2 -57.1 Q 175.7 -57.1 176.7 -58 L 176.7 -58 L 176.7 -58 Q 177.7 -59 177.7 -60.7 L 177.7 -60.7 L 177.7 -60.7 Q 177.7 -63.9 172.2 -67.4 L 172.2 -67.4 L 172.2 -67.4 Q 167.8 -70.3 166.7 -71.5 L 166.7 -71.5 L 166.7 -71.5 Q 165 -73.5 165 -76.1 L 165 -76.1 L 165 -76.1 Q 165 -78.6 166.2 -81.1 L 166.2 -81.1 L 166.2 -81.1 Q 167.4 -83.5 169.7 -85.2 L 169.7 -85.2 L 169.7 -85.2 Q 174.3 -88.8 182.5 -88.8 L 182.5 -88.8 L 182.5 -88.8 Q 186.6 -88.8 189.1 -87.2 L 189.1 -87.2 L 189.1 -87.2 Q 191.6 -85.5 191.6 -82.7 L 191.6 -82.7 L 191.6 -82.7 Q 191.6 -79.9 189.9 -78.3 L 189.9 -78.3 L 189.9 -78.3 Q 188.2 -76.7 185.1 -76.7 L 185.1 -76.7 L 185.1 -76.7 Q 183 -76.7 182 -77.4 Z M 233 -75.5 L 246 -76.7 L 246 -76.7 Q 241.4 -66.5 241.4 -54.8 L 241.4 -54.8 L 241.4 -54.8 Q 239.6 -53.6 237.1 -53.6 L 237.1 -53.6 L 237.1 -53.6 Q 234.6 -53.6 233 -54.8 L 233 -54.8 L 233 -54.8 Q 231.4 -56 231.1 -57.2 L 231.1 -57.2 L 231.1 -57.2 Q 229.5 -55.5 226.9 -54.6 L 226.9 -54.6 L 226.9 -54.6 Q 224.3 -53.6 221.5 -53.6 L 221.5 -53.6 L 221.5 -53.6 Q 218.8 -53.6 216.4 -54.5 L 216.4 -54.5 L 216.4 -54.5 Q 214 -55.4 212.1 -57.4 L 212.1 -57.4 L 212.1 -57.4 Q 208 -61.7 208 -70 L 208 -70 L 208 -70 Q 208 -82.8 214.9 -90.5 L 214.9 -90.5 L 214.9 -90.5 Q 221.9 -98.4 234.4 -98.4 L 234.4 -98.4 L 234.4 -98.4 Q 243 -98.4 246.1 -93.9 L 246.1 -93.9 L 246.1 -93.9 Q 247.1 -92.5 247.1 -90.8 L 247.1 -90.8 L 247.1 -90.8 Q 247.1 -89.1 246.3 -87.7 L 246.3 -87.7 L 246.3 -87.7 Q 245.6 -86.3 244.4 -85.1 L 244.4 -85.1 L 244.4 -85.1 Q 241.7 -82.5 238.3 -82.5 L 238.3 -82.5 L 238.3 -82.5 Q 236.9 -82.5 235.7 -83 L 235.7 -83 L 235.7 -83 Q 235.9 -84.9 235.9 -87.2 L 235.9 -87.2 L 235.9 -87.2 Q 235.9 -89.4 235.8 -90.4 L 235.8 -90.4 L 235.8 -90.4 Q 235.6 -91.4 235.2 -92.3 L 235.2 -92.3 L 235.2 -92.3 Q 234.4 -94 232.6 -94 L 232.6 -94 L 232.6 -94 Q 230.7 -94 228.7 -92 L 228.7 -92 L 228.7 -92 Q 226.7 -90.1 225.1 -86.9 L 225.1 -86.9 L 225.1 -86.9 Q 221.6 -79.7 221.6 -71.1 L 221.6 -71.1 L 221.6 -71.1 Q 221.6 -67.1 223.1 -64.3 L 223.1 -64.3 L 223.1 -64.3 Q 224.8 -61.2 227.7 -61.2 L 227.7 -61.2 L 227.7 -61.2 Q 228.7 -61.2 229.7 -61.7 L 229.7 -61.7 L 229.7 -61.7 Q 230.6 -62.3 231 -62.6 L 231 -62.6 L 233 -75.5 Z M 251.9 -56.8 L 251.9 -56.8 L 251.9 -56.8 Q 250.4 -58.5 249.7 -61.1 L 249.7 -61.1 L 249.7 -61.1 Q 249 -63.7 249 -68 L 249 -68 L 249 -68 Q 249 -72.3 250.5 -76.2 L 250.5 -76.2 L 250.5 -76.2 Q 252 -80.1 254.7 -82.9 L 254.7 -82.9 L 254.7 -82.9 Q 260.2 -88.8 269.3 -88.8 L 269.3 -88.8 L 269.3 -88.8 Q 272.5 -88.8 274.9 -87.7 L 274.9 -87.7 L 285.8 -88.8 L 281.1 -63.9 L 281.1 -63.9 Q 280.9 -63.1 280.9 -61.7 L 280.9 -61.7 L 280.9 -61.7 Q 280.9 -60.3 281.8 -59.4 L 281.8 -59.4 L 281.8 -59.4 Q 282.6 -58.5 283.9 -58.4 L 283.9 -58.4 L 283.9 -58.4 Q 283.3 -56.2 280.9 -54.9 L 280.9 -54.9 L 280.9 -54.9 Q 278.6 -53.6 276 -53.6 L 276 -53.6 L 276 -53.6 Q 273.4 -53.6 271.6 -54.6 L 271.6 -54.6 L 271.6 -54.6 Q 269.8 -55.6 269.3 -57.3 L 269.3 -57.3 L 269.3 -57.3 Q 268.3 -55.7 266.1 -54.6 L 266.1 -54.6 L 266.1 -54.6 Q 263.9 -53.6 261 -53.6 L 261 -53.6 L 261 -53.6 Q 258.1 -53.6 255.8 -54.4 L 255.8 -54.4 L 255.8 -54.4 Q 253.4 -55.2 251.9 -56.8 Z M 265.4 -82.8 L 265.4 -82.8 L 265.4 -82.8 Q 264.7 -81.6 264 -79.7 L 264 -79.7 L 264 -79.7 Q 263.4 -77.7 262.3 -72.5 L 262.3 -72.5 L 262.3 -72.5 Q 261.3 -67.3 261.3 -63.6 L 261.3 -63.6 L 261.3 -63.6 Q 261.3 -59.9 261.8 -58.8 L 261.8 -58.8 L 261.8 -58.8 Q 262.4 -57.7 263.4 -57.7 L 263.4 -57.7 L 263.4 -57.7 Q 265.5 -57.7 267 -59.7 L 267 -59.7 L 267 -59.7 Q 268.5 -61.6 269.1 -65.1 L 269.1 -65.1 L 272.5 -83.8 L 272.5 -83.8 Q 271.1 -85 269.5 -85 L 269.5 -85 L 269.5 -85 Q 268 -85 267.1 -84.5 L 267.1 -84.5 L 267.1 -84.5 Q 266.1 -84 265.4 -82.8 Z M 304.6 -58.4 L 304.6 -58.4 L 304.6 -58.4 Q 302.6 -53.6 296.3 -53.6 L 296.3 -53.6 L 296.3 -53.6 Q 293.1 -53.6 291 -55.9 L 291 -55.9 L 291 -55.9 Q 289.4 -57.7 289.4 -59.8 L 289.4 -59.8 L 289.4 -59.8 Q 289.4 -64.6 291.6 -75.1 L 291.6 -75.1 L 296.3 -99.7 L 309.3 -101 L 303.1 -68.6 L 303.1 -68.6 Q 302 -63.9 302 -62.2 L 302 -62.2 L 302 -62.2 Q 302 -58.5 304.6 -58.4 Z M 325.3 -58.4 L 325.3 -58.4 L 325.3 -58.4 Q 323.3 -53.6 317 -53.6 L 317 -53.6 L 317 -53.6 Q 313.8 -53.6 311.8 -55.9 L 311.8 -55.9 L 311.8 -55.9 Q 310.1 -57.7 310.1 -59.8 L 310.1 -59.8 L 310.1 -59.8 Q 310.1 -64.6 312.3 -75.1 L 312.3 -75.1 L 317 -99.7 L 330 -101 L 323.8 -68.6 L 323.8 -68.6 Q 322.7 -63.9 322.7 -62.2 L 322.7 -62.2 L 322.7 -62.2 Q 322.7 -58.5 325.3 -58.4 Z M 356.7 -65.7 L 356.7 -65.7 L 356.7 -65.7 Q 358.3 -64.6 358.3 -62.2 L 358.3 -62.2 L 358.3 -62.2 Q 358.3 -59.8 357.1 -58.3 L 357.1 -58.3 L 357.1 -58.3 Q 355.9 -56.8 353.9 -55.7 L 353.9 -55.7 L 353.9 -55.7 Q 349.8 -53.6 345.4 -53.6 L 345.4 -53.6 L 345.4 -53.6 Q 340.9 -53.6 338.3 -54.6 L 338.3 -54.6 L 338.3 -54.6 Q 335.8 -55.5 334 -57.3 L 334 -57.3 L 334 -57.3 Q 330.6 -60.7 330.6 -66.9 L 330.6 -66.9 L 330.6 -66.9 Q 330.6 -76.6 335.9 -82.5 L 335.9 -82.5 L 335.9 -82.5 Q 341.5 -88.8 351.3 -88.8 L 351.3 -88.8 L 351.3 -88.8 Q 357.4 -88.8 360.4 -86.3 L 360.4 -86.3 L 360.4 -86.3 Q 362.6 -84.3 362.6 -81.2 L 362.6 -81.2 L 362.6 -81.2 Q 362.6 -69.9 343.2 -69.9 L 343.2 -69.9 L 343.2 -69.9 Q 342.9 -68.3 342.9 -66.9 L 342.9 -66.9 L 342.9 -66.9 Q 342.9 -63.9 344.2 -62.8 L 344.2 -62.8 L 344.2 -62.8 Q 345.5 -61.7 348 -61.7 L 348 -61.7 L 348 -61.7 Q 350.4 -61.7 353 -62.8 L 353 -62.8 L 353 -62.8 Q 355.6 -63.9 356.7 -65.7 Z M 343.6 -72.7 L 343.6 -72.7 L 343.6 -72.7 Q 348.2 -72.7 350.8 -75.5 L 350.8 -75.5 L 350.8 -75.5 Q 353.4 -78.2 353.4 -82.5 L 353.4 -82.5 L 353.4 -82.5 Q 353.4 -84 352.9 -84.8 L 352.9 -84.8 L 352.9 -84.8 Q 352.3 -85.6 351.2 -85.6 L 351.2 -85.6 L 351.2 -85.6 Q 350.2 -85.6 349.2 -85.1 L 349.2 -85.1 L 349.2 -85.1 Q 348.3 -84.7 347.3 -83.3 L 347.3 -83.3 L 347.3 -83.3 Q 345 -80.1 343.6 -72.7 Z M 384.8 -72.9 L 384.8 -72.9 L 384.8 -72.9 Q 387.1 -77 387.1 -81.1 L 387.1 -81.1 L 387.1 -81.1 Q 387.1 -83.9 385.2 -83.9 L 385.2 -83.9 L 385.2 -83.9 Q 383.6 -83.9 382 -81.3 L 382 -81.3 L 382 -81.3 Q 380.4 -78.6 379.9 -75.2 L 379.9 -75.2 L 376.5 -54.9 L 363.3 -53.6 L 369.8 -87.5 L 380.4 -88.8 L 379.2 -82.4 L 379.2 -82.4 Q 382.3 -88.8 389.4 -88.8 L 389.4 -88.8 L 389.4 -88.8 Q 393.1 -88.8 395.1 -86.9 L 395.1 -86.9 L 395.1 -86.9 Q 397.1 -85 397.1 -81 L 397.1 -81 L 397.1 -81 Q 397.1 -77.1 394.5 -74.6 L 394.5 -74.6 L 394.5 -74.6 Q 391.9 -72.1 387.5 -72.1 L 387.5 -72.1 L 387.5 -72.1 Q 385.6 -72.1 384.8 -72.9 Z M 418.5 -62.1 L 418.5 -62.1 L 418.5 -62.1 Q 415.2 -58.7 409.1 -58.7 L 409.1 -58.7 L 409.1 -58.7 Q 401.5 -58.7 399.9 -64.2 L 399.9 -64.2 L 399.9 -64.2 Q 399.4 -65.9 399.4 -67.8 L 399.4 -67.8 L 399.4 -67.8 Q 399.4 -69.6 399.8 -71.5 L 399.8 -71.5 L 402.8 -87.5 L 415.8 -88.8 L 412.2 -70.2 L 412.2 -70.2 Q 412.1 -69.4 411.9 -68.5 L 411.9 -68.5 L 411.9 -68.5 Q 411.7 -67.6 411.7 -66.6 L 411.7 -66.6 L 411.7 -66.6 Q 411.7 -65.7 412 -65.1 L 412 -65.1 L 412 -65.1 Q 412.4 -64.5 412.8 -64.1 L 412.8 -64.1 L 412.8 -64.1 Q 413.6 -63.6 415 -63.6 L 415 -63.6 L 415 -63.6 Q 416.3 -63.6 417.5 -65.3 L 417.5 -65.3 L 417.5 -65.3 Q 418.7 -66.9 419.3 -69.8 L 419.3 -69.8 L 422.8 -87.5 L 435.4 -88.8 L 430.6 -63.7 L 430.6 -63.7 Q 428.2 -51.4 423.4 -46.5 L 423.4 -46.5 L 423.4 -46.5 Q 420.9 -44 417.6 -43 L 417.6 -43 L 417.6 -43 Q 414.4 -42 410.3 -42 L 410.3 -42 L 410.3 -42 Q 403.5 -42 399.7 -44.1 L 399.7 -44.1 L 399.7 -44.1 Q 395.9 -46.3 395.9 -49.8 L 395.9 -49.8 L 395.9 -49.8 Q 395.9 -52.4 397.8 -53.9 L 397.8 -53.9 L 397.8 -53.9 Q 399.8 -55.4 402.9 -55.4 L 402.9 -55.4 L 402.9 -55.4 Q 405.6 -55.4 407.6 -54.3 L 407.6 -54.3 L 407.6 -54.3 Q 408.8 -53.6 409.4 -52.7 L 409.4 -52.7 L 409.4 -52.7 Q 407.9 -51.4 407.9 -49.3 L 407.9 -49.3 L 407.9 -49.3 Q 407.9 -46.4 410.5 -46.4 L 410.5 -46.4 L 410.5 -46.4 Q 414.7 -46.4 417.2 -56.2 L 417.2 -56.2 L 417.2 -56.2 Q 417.9 -59.1 418.5 -62.1 Z" fill="url(#editing-gradient-gradient)"></path></g></g><style>text {
  font-size: 64px;
  font-family: Arial Black;
  dominant-baseline: central;
  text-anchor: middle;
}</style></svg>