<svg width="657.9px" height="122px" xmlns="http://www.w3.org/2000/svg" viewBox="-78.94687499999998 14 657.89375 122" style="background: rgba(0, 0, 0, 0)" preserveAspectRatio="xMidYMid"><defs><filter id="editing-hole" x="-100%" y="-100%" width="300%" height="300%"><feFlood flood-color="#000" result="black"></feFlood><feMorphology operator="dilate" radius="2" in="SourceGraphic" result="erode"></feMorphology><feGaussianBlur in="erode" stdDeviation="4" result="blur"></feGaussianBlur><feOffset in="blur" dx="2" dy="2" result="offset"></feOffset><feComposite operator="atop" in="offset" in2="black" result="merge"></feComposite><feComposite operator="in" in="merge" in2="SourceGraphic" result="inner-shadow"></feComposite></filter></defs><g filter="url(#editing-hole)"><g transform="matrix(1.2,0,0,1.9,-25.7,244.2)"><path d="M -18.9 -75.7 L -32.8 -75.7 L -24.7 -117.9 L -10.6 -117.9 L -18.9 -75.7 Z M 36.9 -74.4 L 36.9 -74.4 L 36.9 -74.4 Q 29.1 -74.4 29.1 -80.4 L 29.1 -80.4 L 29.1 -80.4 Q 29.1 -83 30.2 -88.1 L 30.2 -88.1 L 30.2 -88.1 Q 31.4 -93.2 31.7 -95.3 L 31.7 -95.3 L 31.7 -95.3 Q 32.6 -99.9 32.6 -101.4 L 32.6 -101.4 L 32.6 -101.4 Q 32.6 -104.7 30.2 -104.7 L 30.2 -104.7 L 30.2 -104.7 Q 28.6 -104.7 27.1 -102.5 L 27.1 -102.5 L 27.1 -102.5 Q 25.5 -100.3 24.8 -95.8 L 24.8 -95.8 L 20.9 -75.7 L 8.4 -74.4 L 11.8 -91.8 L 11.8 -91.8 Q 12.4 -94.7 12.9 -98 L 12.9 -98 L 12.9 -98 Q 13.4 -101.2 13.4 -101.7 L 13.4 -101.7 L 13.4 -101.7 Q 13.4 -104.7 11.3 -104.7 L 11.3 -104.7 L 11.3 -104.7 Q 9.8 -104.7 8.2 -102.5 L 8.2 -102.5 L 8.2 -102.5 Q 6.6 -100.3 5.7 -95.8 L 5.7 -95.8 L 1.8 -75.7 L -10.8 -74.4 L -4.1 -108.3 L 6.3 -109.6 L 5.2 -103.1 L 5.2 -103.1 Q 6.9 -106.6 10 -108.1 L 10 -108.1 L 10 -108.1 Q 13.1 -109.6 17.9 -109.6 L 17.9 -109.6 L 17.9 -109.6 Q 20.6 -109.6 22.4 -108.3 L 22.4 -108.3 L 22.4 -108.3 Q 24.2 -106.9 24.8 -104.7 L 24.8 -104.7 L 24.8 -104.7 Q 25.9 -107 28.6 -108.3 L 28.6 -108.3 L 28.6 -108.3 Q 31.4 -109.6 34.8 -109.6 L 34.8 -109.6 L 34.8 -109.6 Q 38.3 -109.6 40 -108.9 L 40 -108.9 L 40 -108.9 Q 41.7 -108.1 42.7 -106.9 L 42.7 -106.9 L 42.7 -106.9 Q 44.4 -104.7 44.4 -100.6 L 44.4 -100.6 L 44.4 -100.6 Q 44.4 -96.5 42.7 -88.2 L 42.7 -88.2 L 42.7 -88.2 Q 41.8 -84.1 41.8 -82.6 L 41.8 -82.6 L 41.8 -82.6 Q 41.8 -81.1 42.7 -80.2 L 42.7 -80.2 L 42.7 -80.2 Q 43.5 -79.3 44.8 -79.1 L 44.8 -79.1 L 44.8 -79.1 Q 44.2 -77 42 -75.7 L 42 -75.7 L 42 -75.7 Q 39.7 -74.4 36.9 -74.4 Z M 52.5 -77.6 L 52.5 -77.6 L 52.5 -77.6 Q 51 -79.3 50.3 -81.9 L 50.3 -81.9 L 50.3 -81.9 Q 49.7 -84.5 49.7 -88.8 L 49.7 -88.8 L 49.7 -88.8 Q 49.7 -93.1 51.1 -97 L 51.1 -97 L 51.1 -97 Q 52.6 -100.9 55.3 -103.7 L 55.3 -103.7 L 55.3 -103.7 Q 60.8 -109.6 69.9 -109.6 L 69.9 -109.6 L 69.9 -109.6 Q 73.2 -109.6 75.5 -108.5 L 75.5 -108.5 L 86.5 -109.6 L 81.7 -84.6 L 81.7 -84.6 Q 81.5 -83.9 81.5 -82.5 L 81.5 -82.5 L 81.5 -82.5 Q 81.5 -81.1 82.4 -80.2 L 82.4 -80.2 L 82.4 -80.2 Q 83.3 -79.3 84.5 -79.1 L 84.5 -79.1 L 84.5 -79.1 Q 83.9 -77 81.6 -75.7 L 81.6 -75.7 L 81.6 -75.7 Q 79.2 -74.4 76.6 -74.4 L 76.6 -74.4 L 76.6 -74.4 Q 74 -74.4 72.2 -75.4 L 72.2 -75.4 L 72.2 -75.4 Q 70.5 -76.4 70 -78.1 L 70 -78.1 L 70 -78.1 Q 68.9 -76.5 66.8 -75.4 L 66.8 -75.4 L 66.8 -75.4 Q 64.6 -74.4 61.7 -74.4 L 61.7 -74.4 L 61.7 -74.4 Q 58.8 -74.4 56.4 -75.2 L 56.4 -75.2 L 56.4 -75.2 Q 54 -75.9 52.5 -77.6 Z M 66 -103.6 L 66 -103.6 L 66 -103.6 Q 65.3 -102.4 64.6 -100.5 L 64.6 -100.5 L 64.6 -100.5 Q 64 -98.5 62.9 -93.3 L 62.9 -93.3 L 62.9 -93.3 Q 61.9 -88.1 61.9 -84.4 L 61.9 -84.4 L 61.9 -84.4 Q 61.9 -80.7 62.5 -79.6 L 62.5 -79.6 L 62.5 -79.6 Q 63 -78.5 64.1 -78.5 L 64.1 -78.5 L 64.1 -78.5 Q 66.1 -78.5 67.6 -80.5 L 67.6 -80.5 L 67.6 -80.5 Q 69.1 -82.4 69.7 -85.9 L 69.7 -85.9 L 73.1 -104.6 L 73.1 -104.6 Q 71.7 -105.8 70.2 -105.8 L 70.2 -105.8 L 70.2 -105.8 Q 68.6 -105.8 67.7 -105.3 L 67.7 -105.3 L 67.7 -105.3 Q 66.8 -104.7 66 -103.6 Z M 94.2 -102.4 L 94.2 -102.4 L 94.2 -102.4 Q 96.4 -105.5 99.7 -107.6 L 99.7 -107.6 L 99.7 -107.6 Q 103 -109.6 107 -109.6 L 107 -109.6 L 107 -109.6 Q 111 -109.6 113 -108.3 L 113 -108.3 L 125.5 -109.6 L 121.2 -85 L 121.2 -85 Q 118.9 -72.5 114.2 -67.6 L 114.2 -67.6 L 114.2 -67.6 Q 109.6 -62.9 100.8 -62.9 L 100.8 -62.9 L 100.8 -62.9 Q 94.1 -62.9 90.2 -65 L 90.2 -65 L 90.2 -65 Q 86.4 -67.1 86.4 -70.6 L 86.4 -70.6 L 86.4 -70.6 Q 86.4 -73.3 88.4 -74.8 L 88.4 -74.8 L 88.4 -74.8 Q 90.4 -76.3 93.4 -76.3 L 93.4 -76.3 L 93.4 -76.3 Q 96.1 -76.3 98.2 -75 L 98.2 -75 L 98.2 -75 Q 99.4 -74.4 100 -73.5 L 100 -73.5 L 100 -73.5 Q 98.5 -72.2 98.5 -70.1 L 98.5 -70.1 L 98.5 -70.1 Q 98.5 -67.4 101.1 -67.4 L 101.1 -67.4 L 101.1 -67.4 Q 105.3 -67.4 107.8 -77.5 L 107.8 -77.5 L 107.8 -77.5 Q 108.5 -80.2 109.1 -83 L 109.1 -83 L 109.1 -83 Q 106.2 -79.5 99.6 -79.5 L 99.6 -79.5 L 99.6 -79.5 Q 95.1 -79.5 92.5 -81.6 L 92.5 -81.6 L 92.5 -81.6 Q 89.9 -83.8 89.9 -88.9 L 89.9 -88.9 L 89.9 -88.9 Q 89.9 -92.1 90.9 -95.7 L 90.9 -95.7 L 90.9 -95.7 Q 92 -99.4 94.2 -102.4 Z M 102.5 -88.7 L 102.5 -88.7 L 102.5 -88.7 Q 102.5 -84.4 104.8 -84.4 L 104.8 -84.4 L 104.8 -84.4 Q 106.3 -84.4 107.8 -86.1 L 107.8 -86.1 L 107.8 -86.1 Q 108.9 -87.4 109.4 -89.4 L 109.4 -89.4 L 112.6 -105.8 L 112.6 -105.8 Q 112.3 -105.9 112 -106 L 112 -106 L 112 -106 Q 111.4 -106.3 110.5 -106.3 L 110.5 -106.3 L 110.5 -106.3 Q 106.6 -106.3 104.3 -99.9 L 104.3 -99.9 L 104.3 -99.9 Q 102.5 -94.9 102.5 -88.7 Z M 153.9 -86.5 L 153.9 -86.5 L 153.9 -86.5 Q 155.5 -85.4 155.5 -83 L 155.5 -83 L 155.5 -83 Q 155.5 -80.6 154.3 -79.1 L 154.3 -79.1 L 154.3 -79.1 Q 153.1 -77.5 151.1 -76.5 L 151.1 -76.5 L 151.1 -76.5 Q 147 -74.4 142.6 -74.4 L 142.6 -74.4 L 142.6 -74.4 Q 138.2 -74.4 135.6 -75.4 L 135.6 -75.4 L 135.6 -75.4 Q 133 -76.3 131.3 -78.1 L 131.3 -78.1 L 131.3 -78.1 Q 127.9 -81.5 127.9 -87.7 L 127.9 -87.7 L 127.9 -87.7 Q 127.9 -97.4 133.1 -103.3 L 133.1 -103.3 L 133.1 -103.3 Q 138.8 -109.6 148.5 -109.6 L 148.5 -109.6 L 148.5 -109.6 Q 154.6 -109.6 157.6 -107 L 157.6 -107 L 157.6 -107 Q 159.9 -105.1 159.9 -102 L 159.9 -102 L 159.9 -102 Q 159.9 -90.7 140.4 -90.7 L 140.4 -90.7 L 140.4 -90.7 Q 140.2 -89.1 140.2 -87.7 L 140.2 -87.7 L 140.2 -87.7 Q 140.2 -84.7 141.5 -83.6 L 141.5 -83.6 L 141.5 -83.6 Q 142.8 -82.5 145.2 -82.5 L 145.2 -82.5 L 145.2 -82.5 Q 147.6 -82.5 150.2 -83.6 L 150.2 -83.6 L 150.2 -83.6 Q 152.8 -84.7 153.9 -86.5 Z M 140.9 -93.5 L 140.9 -93.5 L 140.9 -93.5 Q 145.4 -93.5 148 -96.3 L 148 -96.3 L 148 -96.3 Q 150.7 -99 150.7 -103.3 L 150.7 -103.3 L 150.7 -103.3 Q 150.7 -104.7 150.1 -105.5 L 150.1 -105.5 L 150.1 -105.5 Q 149.6 -106.3 148.5 -106.3 L 148.5 -106.3 L 148.5 -106.3 Q 147.4 -106.3 146.5 -105.9 L 146.5 -105.9 L 146.5 -105.9 Q 145.5 -105.5 144.6 -104.1 L 144.6 -104.1 L 144.6 -104.1 Q 142.2 -100.9 140.9 -93.5 Z M 181.2 -98.1 L 181.2 -98.1 L 181.2 -98.1 Q 182.1 -100.5 182.1 -102.6 L 182.1 -102.6 L 182.1 -102.6 Q 182.1 -106.3 179 -106.3 L 179 -106.3 L 179 -106.3 Q 177.4 -106.3 176.1 -104.9 L 176.1 -104.9 L 176.1 -104.9 Q 174.8 -103.5 174.8 -101.7 L 174.8 -101.7 L 174.8 -101.7 Q 174.8 -100.4 175.8 -99.4 L 175.8 -99.4 L 175.8 -99.4 Q 177.3 -98 181.1 -95.7 L 181.1 -95.7 L 181.1 -95.7 Q 184.8 -93.3 186.3 -91.5 L 186.3 -91.5 L 186.3 -91.5 Q 187.7 -89.6 187.7 -87 L 187.7 -87 L 187.7 -87 Q 187.7 -84.4 186.5 -82 L 186.5 -82 L 186.5 -82 Q 185.2 -79.7 183 -78 L 183 -78 L 183 -78 Q 178.2 -74.4 170.5 -74.4 L 170.5 -74.4 L 170.5 -74.4 Q 166.3 -74.4 163.1 -76.6 L 163.1 -76.6 L 163.1 -76.6 Q 159.9 -78.7 159.9 -81.2 L 159.9 -81.2 L 159.9 -81.2 Q 159.9 -83.7 161.8 -85.2 L 161.8 -85.2 L 161.8 -85.2 Q 163.6 -86.6 166.3 -86.6 L 166.3 -86.6 L 166.3 -86.6 Q 169 -86.6 170.6 -85.6 L 170.6 -85.6 L 170.6 -85.6 Q 169.8 -83.5 169.8 -82.1 L 169.8 -82.1 L 169.8 -82.1 Q 169.8 -77.9 173.4 -77.9 L 173.4 -77.9 L 173.4 -77.9 Q 174.9 -77.9 175.9 -78.8 L 175.9 -78.8 L 175.9 -78.8 Q 177 -79.8 177 -81.4 L 177 -81.4 L 177 -81.4 Q 177 -84.7 171.5 -88.2 L 171.5 -88.2 L 171.5 -88.2 Q 167 -91.1 166 -92.3 L 166 -92.3 L 166 -92.3 Q 164.2 -94.3 164.2 -96.9 L 164.2 -96.9 L 164.2 -96.9 Q 164.2 -99.4 165.4 -101.9 L 165.4 -101.9 L 165.4 -101.9 Q 166.7 -104.3 168.9 -106 L 168.9 -106 L 168.9 -106 Q 173.6 -109.6 181.7 -109.6 L 181.7 -109.6 L 181.7 -109.6 Q 185.9 -109.6 188.3 -107.9 L 188.3 -107.9 L 188.3 -107.9 Q 190.8 -106.3 190.8 -103.5 L 190.8 -103.5 L 190.8 -103.5 Q 190.8 -100.6 189.1 -99 L 189.1 -99 L 189.1 -99 Q 187.4 -97.4 184.3 -97.4 L 184.3 -97.4 L 184.3 -97.4 Q 182.2 -97.4 181.2 -98.1 Z M 232.3 -96.3 L 245.2 -97.4 L 245.2 -97.4 Q 240.6 -87.3 240.6 -75.6 L 240.6 -75.6 L 240.6 -75.6 Q 238.8 -74.4 236.3 -74.4 L 236.3 -74.4 L 236.3 -74.4 Q 233.8 -74.4 232.2 -75.6 L 232.2 -75.6 L 232.2 -75.6 Q 230.6 -76.8 230.3 -78 L 230.3 -78 L 230.3 -78 Q 228.7 -76.3 226.1 -75.4 L 226.1 -75.4 L 226.1 -75.4 Q 223.5 -74.4 220.7 -74.4 L 220.7 -74.4 L 220.7 -74.4 Q 218 -74.4 215.6 -75.3 L 215.6 -75.3 L 215.6 -75.3 Q 213.2 -76.2 211.3 -78.2 L 211.3 -78.2 L 211.3 -78.2 Q 207.2 -82.5 207.2 -90.8 L 207.2 -90.8 L 207.2 -90.8 Q 207.2 -103.6 214.1 -111.3 L 214.1 -111.3 L 214.1 -111.3 Q 221.1 -119.2 233.6 -119.2 L 233.6 -119.2 L 233.6 -119.2 Q 242.2 -119.2 245.3 -114.7 L 245.3 -114.7 L 245.3 -114.7 Q 246.3 -113.3 246.3 -111.6 L 246.3 -111.6 L 246.3 -111.6 Q 246.3 -109.9 245.5 -108.5 L 245.5 -108.5 L 245.5 -108.5 Q 244.8 -107 243.6 -105.9 L 243.6 -105.9 L 243.6 -105.9 Q 240.9 -103.3 237.5 -103.3 L 237.5 -103.3 L 237.5 -103.3 Q 236.2 -103.3 234.9 -103.8 L 234.9 -103.8 L 234.9 -103.8 Q 235.1 -105.7 235.1 -107.9 L 235.1 -107.9 L 235.1 -107.9 Q 235.1 -110.2 235 -111.2 L 235 -111.2 L 235 -111.2 Q 234.8 -112.2 234.4 -113.1 L 234.4 -113.1 L 234.4 -113.1 Q 233.6 -114.8 231.8 -114.8 L 231.8 -114.8 L 231.8 -114.8 Q 230 -114.8 227.9 -112.8 L 227.9 -112.8 L 227.9 -112.8 Q 225.9 -110.9 224.3 -107.7 L 224.3 -107.7 L 224.3 -107.7 Q 220.8 -100.5 220.8 -91.9 L 220.8 -91.9 L 220.8 -91.9 Q 220.8 -87.9 222.3 -85.1 L 222.3 -85.1 L 222.3 -85.1 Q 224 -82 226.9 -82 L 226.9 -82 L 226.9 -82 Q 228 -82 228.9 -82.5 L 228.9 -82.5 L 228.9 -82.5 Q 229.8 -83 230.2 -83.4 L 230.2 -83.4 L 232.3 -96.3 Z M 251.1 -77.6 L 251.1 -77.6 L 251.1 -77.6 Q 249.6 -79.3 248.9 -81.9 L 248.9 -81.9 L 248.9 -81.9 Q 248.3 -84.5 248.3 -88.8 L 248.3 -88.8 L 248.3 -88.8 Q 248.3 -93.1 249.7 -97 L 249.7 -97 L 249.7 -97 Q 251.2 -100.9 253.9 -103.7 L 253.9 -103.7 L 253.9 -103.7 Q 259.4 -109.6 268.5 -109.6 L 268.5 -109.6 L 268.5 -109.6 Q 271.7 -109.6 274.1 -108.5 L 274.1 -108.5 L 285.1 -109.6 L 280.3 -84.6 L 280.3 -84.6 Q 280.1 -83.9 280.1 -82.5 L 280.1 -82.5 L 280.1 -82.5 Q 280.1 -81.1 281 -80.2 L 281 -80.2 L 281 -80.2 Q 281.9 -79.3 283.1 -79.1 L 283.1 -79.1 L 283.1 -79.1 Q 282.5 -77 280.2 -75.7 L 280.2 -75.7 L 280.2 -75.7 Q 277.8 -74.4 275.2 -74.4 L 275.2 -74.4 L 275.2 -74.4 Q 272.6 -74.4 270.8 -75.4 L 270.8 -75.4 L 270.8 -75.4 Q 269.1 -76.4 268.5 -78.1 L 268.5 -78.1 L 268.5 -78.1 Q 267.5 -76.5 265.3 -75.4 L 265.3 -75.4 L 265.3 -75.4 Q 263.2 -74.4 260.3 -74.4 L 260.3 -74.4 L 260.3 -74.4 Q 257.3 -74.4 255 -75.2 L 255 -75.2 L 255 -75.2 Q 252.6 -75.9 251.1 -77.6 Z M 264.6 -103.6 L 264.6 -103.6 L 264.6 -103.6 Q 263.9 -102.4 263.2 -100.5 L 263.2 -100.5 L 263.2 -100.5 Q 262.6 -98.5 261.5 -93.3 L 261.5 -93.3 L 261.5 -93.3 Q 260.5 -88.1 260.5 -84.4 L 260.5 -84.4 L 260.5 -84.4 Q 260.5 -80.7 261.1 -79.6 L 261.1 -79.6 L 261.1 -79.6 Q 261.6 -78.5 262.7 -78.5 L 262.7 -78.5 L 262.7 -78.5 Q 264.7 -78.5 266.2 -80.5 L 266.2 -80.5 L 266.2 -80.5 Q 267.7 -82.4 268.3 -85.9 L 268.3 -85.9 L 271.7 -104.6 L 271.7 -104.6 Q 270.3 -105.8 268.8 -105.8 L 268.8 -105.8 L 268.8 -105.8 Q 267.2 -105.8 266.3 -105.3 L 266.3 -105.3 L 266.3 -105.3 Q 265.3 -104.7 264.6 -103.6 Z M 303.8 -79.2 L 303.8 -79.2 L 303.8 -79.2 Q 301.8 -74.4 295.5 -74.4 L 295.5 -74.4 L 295.5 -74.4 Q 292.3 -74.4 290.2 -76.6 L 290.2 -76.6 L 290.2 -76.6 Q 288.6 -78.5 288.6 -80.6 L 288.6 -80.6 L 288.6 -80.6 Q 288.6 -85.4 290.8 -95.9 L 290.8 -95.9 L 295.5 -120.5 L 308.5 -121.8 L 302.3 -89.4 L 302.3 -89.4 Q 301.2 -84.6 301.2 -83 L 301.2 -83 L 301.2 -83 Q 301.2 -79.3 303.8 -79.2 Z M 324.5 -79.2 L 324.5 -79.2 L 324.5 -79.2 Q 322.6 -74.4 316.2 -74.4 L 316.2 -74.4 L 316.2 -74.4 Q 313 -74.4 311 -76.6 L 311 -76.6 L 311 -76.6 Q 309.3 -78.5 309.3 -80.6 L 309.3 -80.6 L 309.3 -80.6 Q 309.3 -85.4 311.6 -95.9 L 311.6 -95.9 L 316.2 -120.5 L 329.2 -121.8 L 323 -89.4 L 323 -89.4 Q 321.9 -84.6 321.9 -83 L 321.9 -83 L 321.9 -83 Q 321.9 -79.3 324.5 -79.2 Z M 355.9 -86.5 L 355.9 -86.5 L 355.9 -86.5 Q 357.5 -85.4 357.5 -83 L 357.5 -83 L 357.5 -83 Q 357.5 -80.6 356.3 -79.1 L 356.3 -79.1 L 356.3 -79.1 Q 355.1 -77.5 353.1 -76.5 L 353.1 -76.5 L 353.1 -76.5 Q 349 -74.4 344.6 -74.4 L 344.6 -74.4 L 344.6 -74.4 Q 340.2 -74.4 337.6 -75.4 L 337.6 -75.4 L 337.6 -75.4 Q 335 -76.3 333.2 -78.1 L 333.2 -78.1 L 333.2 -78.1 Q 329.9 -81.5 329.9 -87.7 L 329.9 -87.7 L 329.9 -87.7 Q 329.9 -97.4 335.1 -103.3 L 335.1 -103.3 L 335.1 -103.3 Q 340.7 -109.6 350.5 -109.6 L 350.5 -109.6 L 350.5 -109.6 Q 356.6 -109.6 359.6 -107 L 359.6 -107 L 359.6 -107 Q 361.9 -105.1 361.9 -102 L 361.9 -102 L 361.9 -102 Q 361.9 -90.7 342.4 -90.7 L 342.4 -90.7 L 342.4 -90.7 Q 342.1 -89.1 342.1 -87.7 L 342.1 -87.7 L 342.1 -87.7 Q 342.1 -84.7 343.5 -83.6 L 343.5 -83.6 L 343.5 -83.6 Q 344.8 -82.5 347.2 -82.5 L 347.2 -82.5 L 347.2 -82.5 Q 349.6 -82.5 352.2 -83.6 L 352.2 -83.6 L 352.2 -83.6 Q 354.8 -84.7 355.9 -86.5 Z M 342.8 -93.5 L 342.8 -93.5 L 342.8 -93.5 Q 347.4 -93.5 350 -96.3 L 350 -96.3 L 350 -96.3 Q 352.6 -99 352.6 -103.3 L 352.6 -103.3 L 352.6 -103.3 Q 352.6 -104.7 352.1 -105.5 L 352.1 -105.5 L 352.1 -105.5 Q 351.6 -106.3 350.5 -106.3 L 350.5 -106.3 L 350.5 -106.3 Q 349.4 -106.3 348.4 -105.9 L 348.4 -105.9 L 348.4 -105.9 Q 347.5 -105.5 346.6 -104.1 L 346.6 -104.1 L 346.6 -104.1 Q 344.2 -100.9 342.8 -93.5 Z M 384.1 -93.7 L 384.1 -93.7 L 384.1 -93.7 Q 386.4 -97.8 386.4 -101.9 L 386.4 -101.9 L 386.4 -101.9 Q 386.4 -104.7 384.4 -104.7 L 384.4 -104.7 L 384.4 -104.7 Q 382.8 -104.7 381.2 -102.1 L 381.2 -102.1 L 381.2 -102.1 Q 379.6 -99.4 379.1 -96 L 379.1 -96 L 375.7 -75.7 L 362.5 -74.4 L 369 -108.3 L 379.6 -109.6 L 378.4 -103.1 L 378.4 -103.1 Q 381.6 -109.6 388.6 -109.6 L 388.6 -109.6 L 388.6 -109.6 Q 392.3 -109.6 394.3 -107.7 L 394.3 -107.7 L 394.3 -107.7 Q 396.4 -105.8 396.4 -101.8 L 396.4 -101.8 L 396.4 -101.8 Q 396.4 -97.9 393.8 -95.4 L 393.8 -95.4 L 393.8 -95.4 Q 391.2 -92.9 386.8 -92.9 L 386.8 -92.9 L 386.8 -92.9 Q 384.8 -92.9 384.1 -93.7 Z M 417.7 -82.9 L 417.7 -82.9 L 417.7 -82.9 Q 414.4 -79.5 408.3 -79.5 L 408.3 -79.5 L 408.3 -79.5 Q 400.7 -79.5 399.1 -85 L 399.1 -85 L 399.1 -85 Q 398.6 -86.7 398.6 -88.5 L 398.6 -88.5 L 398.6 -88.5 Q 398.6 -90.4 399 -92.3 L 399 -92.3 L 402 -108.3 L 415 -109.6 L 411.5 -91 L 411.5 -91 Q 411.3 -90.1 411.1 -89.3 L 411.1 -89.3 L 411.1 -89.3 Q 410.9 -88.4 410.9 -87.4 L 410.9 -87.4 L 410.9 -87.4 Q 410.9 -86.5 411.3 -85.9 L 411.3 -85.9 L 411.3 -85.9 Q 411.6 -85.3 412 -84.9 L 412 -84.9 L 412 -84.9 Q 412.8 -84.4 414.2 -84.4 L 414.2 -84.4 L 414.2 -84.4 Q 415.6 -84.4 416.7 -86.1 L 416.7 -86.1 L 416.7 -86.1 Q 417.9 -87.7 418.5 -90.6 L 418.5 -90.6 L 422 -108.3 L 434.6 -109.6 L 429.8 -84.5 L 429.8 -84.5 Q 427.5 -72.2 422.6 -67.3 L 422.6 -67.3 L 422.6 -67.3 Q 420.1 -64.8 416.9 -63.8 L 416.9 -63.8 L 416.9 -63.8 Q 413.6 -62.8 409.5 -62.8 L 409.5 -62.8 L 409.5 -62.8 Q 402.8 -62.8 398.9 -64.9 L 398.9 -64.9 L 398.9 -64.9 Q 395.1 -67 395.1 -70.6 L 395.1 -70.6 L 395.1 -70.6 Q 395.1 -73.2 397.1 -74.7 L 397.1 -74.7 L 397.1 -74.7 Q 399 -76.2 402.1 -76.2 L 402.1 -76.2 L 402.1 -76.2 Q 404.8 -76.2 406.8 -75 L 406.8 -75 L 406.8 -75 Q 408.1 -74.3 408.6 -73.4 L 408.6 -73.4 L 408.6 -73.4 Q 407.2 -72.2 407.2 -70.1 L 407.2 -70.1 L 407.2 -70.1 Q 407.2 -67.2 409.7 -67.2 L 409.7 -67.2 L 409.7 -67.2 Q 414 -67.2 416.4 -77 L 416.4 -77 L 416.4 -77 Q 417.1 -79.8 417.7 -82.9 Z" fill="#cccccc"></path></g></g><style>text {
  font-size: 64px;
  font-family: Arial Black;
  dominant-baseline: central;
  text-anchor: middle;
}</style></svg>